<svg width="32" height="32" viewBox="0 0 32 32" fill="none" xmlns="http://www.w3.org/2000/svg">
<rect width="32" height="32" rx="16" fill="#f8f9fa"/>
<path d="M16.2988 24.1953C15.1074 24.1953 14.1211 23.9642 13.3398 23.502C12.5586 23.0332 11.9759 22.3822 11.5918 21.5488C11.2077 20.7155 11.0156 19.7454 11.0156 18.6387C11.0156 17.7858 11.1068 16.9264 11.2891 16.0605C11.4714 15.1947 11.7546 14.3711 12.1387 13.5898C12.5228 12.8021 13.0143 12.1022 13.6133 11.4902C14.2122 10.8717 14.9251 10.3867 15.752 10.0352C16.5788 9.67708 17.5293 9.49805 18.6035 9.49805C19.554 9.49805 20.4069 9.61198 21.1621 9.83984C21.9173 10.0612 22.6302 10.3737 23.3008 10.7773L21.8555 13.7559C21.25 13.3978 20.6934 13.1309 20.1855 12.9551C19.6777 12.7728 19.1504 12.6816 18.6035 12.6816C18.1413 12.6816 17.7148 12.7858 17.3242 12.9941C16.9401 13.2025 16.5951 13.4922 16.2891 13.8633C15.9896 14.2344 15.7324 14.6641 15.5176 15.1523C15.3092 15.6341 15.1497 16.1582 15.0391 16.7246C14.9349 17.2845 14.8828 17.8574 14.8828 18.4434C14.8828 19.3092 15.0651 19.9603 15.4297 20.3965C15.8008 20.8262 16.3249 21.041 17.002 21.041C17.5814 21.041 18.1478 20.9694 18.7012 20.8262C19.2546 20.6829 19.8861 20.4616 20.5957 20.1621V23.3164C19.8991 23.6289 19.1927 23.8535 18.4766 23.9902C17.7669 24.127 17.041 24.1953 16.2988 24.1953Z" fill="var(--lime)"/>
</svg>
