<svg width="512" height="512" viewBox="0 0 512 512" fill="none" xmlns="http://www.w3.org/2000/svg">
<rect width="512" height="512" rx="256" fill="#10B981"/>
<path d="M255.781 383.125C236.719 383.125 220.938 379.427 208.438 372.031C195.938 364.531 186.615 354.115 180.469 340.781C174.323 327.448 171.25 311.927 171.25 294.219C171.25 280.573 172.708 266.823 175.625 252.969C178.542 239.115 183.073 225.938 189.219 213.438C195.365 200.833 203.229 189.635 212.812 179.844C222.396 169.948 233.802 162.188 247.031 156.562C260.26 150.833 275.469 147.969 292.656 147.969C307.865 147.969 321.51 149.792 333.594 153.438C345.677 156.979 357.083 161.979 367.812 168.438L344.688 216.094C335 210.365 326.094 206.094 317.969 203.281C309.844 200.365 301.406 198.906 292.656 198.906C285.26 198.906 278.438 200.573 272.188 203.906C266.042 207.24 260.521 211.875 255.625 217.812C250.833 223.75 246.719 230.625 243.281 238.438C239.948 246.146 237.396 254.531 235.625 263.594C233.958 272.552 233.125 281.719 233.125 291.094C233.125 304.948 236.042 315.365 241.875 322.344C247.812 329.219 256.198 332.656 267.031 332.656C276.302 332.656 285.365 331.51 294.219 329.219C303.073 326.927 313.177 323.385 324.531 318.594V369.062C313.385 374.062 302.083 377.656 290.625 379.844C279.271 382.031 267.656 383.125 255.781 383.125Z" fill="white"/>
</svg>
